<mxfile host="65bd71144e">
    <diagram id="54u36wipQIjsj1VL5bNN" name="Page-1">
        <mxGraphModel dx="732" dy="1649" grid="1" gridSize="10" guides="1" tooltips="1" connect="1" arrows="1" fold="1" page="1" pageScale="1" pageWidth="850" pageHeight="1100" math="0" shadow="0">
            <root>
                <mxCell id="0"/>
                <mxCell id="1" parent="0"/>
                <mxCell id="2" value="Fiber Framework" style="swimlane;whiteSpace=wrap;html=1;startSize=23;" vertex="1" parent="1">
                    <mxGeometry x="390" y="30" width="130" height="130" as="geometry"/>
                </mxCell>
                <mxCell id="3" value="&amp;nbsp;JWT authentication" style="swimlane;whiteSpace=wrap;html=1;" vertex="1" parent="1">
                    <mxGeometry x="150" y="30" width="120" height="110" as="geometry"/>
                </mxCell>
                <mxCell id="4" value="API" style="swimlane;whiteSpace=wrap;html=1;" vertex="1" parent="1">
                    <mxGeometry x="355" y="-5" width="200" height="200" as="geometry"/>
                </mxCell>
                <mxCell id="5" value="Docker Container" style="swimlane;whiteSpace=wrap;html=1;" vertex="1" parent="1">
                    <mxGeometry x="320" y="-40" width="270" height="260" as="geometry"/>
                </mxCell>
                <mxCell id="6" value="Lab2" style="swimlane;whiteSpace=wrap;html=1;" vertex="1" parent="1">
                    <mxGeometry x="390" y="370" width="200" height="200" as="geometry"/>
                </mxCell>
            </root>
        </mxGraphModel>
    </diagram>
</mxfile>